<?xml version="1.0" encoding="UTF-8"?>
<!DOCTYPE svg PUBLIC "-//W3C//DTD SVG 1.1//EN" "http://www.w3.org/Graphics/SVG/1.1/DTD/svg11.dtd">
<!-- Creator: CorelDRAW 2021 (64 Bit) -->
<svg xmlns="http://www.w3.org/2000/svg" xml:space="preserve" width="1024px" height="1024px" version="1.1" style="shape-rendering:geometricPrecision; text-rendering:geometricPrecision; image-rendering:optimizeQuality; fill-rule:evenodd; clip-rule:evenodd"
viewBox="0 0 1024 1024"
 xmlns:xlink="http://www.w3.org/1999/xlink"
 xmlns:xodm="http://www.corel.com/coreldraw/odm/2003">
 <defs>
  <style type="text/css">
   <![CDATA[
    .fil0 {fill:black;fill-rule:nonzero}
    .fil1 {fill:white;fill-rule:nonzero}
   ]]>
  </style>
 </defs>
 <g id="Camada_x0020_1">
  <metadata id="CorelCorpID_0Corel-Layer"/>
  <g id="_1617679880656">
   <path class="fil0" d="M956.42 456.45c-27.74,0.72 -50.07,23.05 -50.79,50.8 0.55,26.47 22.18,47.66 48.67,47.66 0.7,0 1.42,-0.02 2.13,-0.05 0.53,0.02 1.08,0.03 1.61,0.03 25.42,0 46.03,-20.61 46.03,-46.03 0,-0.53 -0.01,-1.08 -0.03,-1.61 0.02,-0.47 0.02,-0.95 0.02,-1.41 0,-26.6 -21.05,-48.44 -47.63,-49.39l-0.01 0z"/>
   <path class="fil1" d="M956.42 462.8c22.97,0.52 41.33,19.29 41.33,42.26 0,0.73 -0.02,1.47 -0.06,2.18 1.27,23.55 -18.09,42.91 -41.27,44.45 -24.7,-1.59 -44.07,-20.96 -44.44,-44.45 0.29,-24.42 20.02,-44.15 44.44,-44.44l0 0z"/>
   <path class="fil0" d="M943.73 507.24l12.69 0 15.88 28.58 9.52 0 -19.05 -28.58c10.64,1.33 18.26,-2.69 19.05,-12.69 -0.79,-5.51 -2.86,-10.37 -6.35,-12.7 -4.76,-2.44 -9.42,-2.7 -12.7,-3.18l-25.39 0 0 57.15 6.35 0 0 -28.58 0 0z"/>
   <path class="fil1" d="M943.73 485.02l15.87 0c7.09,-1 14.55,0.06 15.87,9.53 -1.27,10.26 -13.28,8.99 -22.22,9.52l-9.52 0 0 -19.05z"/>
   <path class="fil0" d="M889.76 850.1c-94.68,103.02 -228.33,161.84 -368.28,161.9 -276.69,-0.26 -500.76,-224.28 -501.55,-501.58 0.79,-275.45 224.86,-499.47 501.58,-498.41 1.15,-0.01 2.36,-0.01 3.5,-0.01 150.83,0 293.4,69.09 386.95,187.33l-79.37 66.67c-74.59,-96.08 -189.41,-152.35 -311.06,-152.4 -219.95,0.26 -397.88,178.2 -396.82,396.82 -1.06,220.47 176.87,398.41 396.82,399.99 111.15,-1.1 216.92,-48.27 292.06,-130.13l76.19 69.84 -0.02 -0.02z"/>
   <path class="fil0" d="M654.84 551.69l-3.17 257.14c-28.27,12.54 -58.27,21.13 -88.87,25.4l-0.02 -644.44c160.47,20.37 283.33,156.61 282.54,320.63 0,1.68 0.04,3.52 0.04,5.25 0,69.55 -23.53,137.1 -66.72,191.58l-73.01 -47.62c24.07,-31.32 41.05,-68.25 47.61,-107.94l-98.4 0zm-180.95 282.54c-117.19,-18.68 -213.44,-97.57 -253.96,-203.18l79.36 -34.92c18.32,50.08 53.02,92.62 98.4,120.64l0 -142.86 -184.11 -168.25c40,-114.29 139.73,-198.68 260.31,-215.87l0 200 -76.19 0 0 -82.54c-32.57,19.48 -59.88,46.79 -79.35,79.36l155.55 139.68 0 307.93 -0.01 0.01z"/>
   <path class="fil1" d="M753.25 475.5c-8.98,-65.22 -44.64,-123.89 -98.4,-161.91l0 161.9 98.4 0.01z"/>
  </g>
 </g>
</svg>
