<?xml version="1.0" encoding="UTF-8"?>
<!DOCTYPE svg PUBLIC "-//W3C//DTD SVG 1.1//EN" "http://www.w3.org/Graphics/SVG/1.1/DTD/svg11.dtd">
<!-- Creator: CorelDRAW 2021 (64 Bit) -->
<svg xmlns="http://www.w3.org/2000/svg" xml:space="preserve" width="1024px" height="1024px" version="1.1" style="shape-rendering:geometricPrecision; text-rendering:geometricPrecision; image-rendering:optimizeQuality; fill-rule:evenodd; clip-rule:evenodd"
viewBox="0 0 1024 1024"
 xmlns:xlink="http://www.w3.org/1999/xlink"
 xmlns:xodm="http://www.corel.com/coreldraw/odm/2003">
 <defs>
  <style type="text/css">
   <![CDATA[
    .fil0 {fill:black;fill-rule:nonzero}
   ]]>
  </style>
 </defs>
 <g id="Camada_x0020_1">
  <metadata id="CorelCorpID_0Corel-Layer"/>
  <path class="fil0" d="M209.56 879.02c-71.76,-75.1 -115.83,-176.86 -115.83,-288.91 0,-231.03 187.28,-418.27 418.27,-418.27 230.99,0 418.27,187.24 418.27,418.27 0,112.05 -44.07,213.81 -115.83,288.91l36.18 0c66.41,-77.76 106.54,-178.65 106.54,-288.91 0,-245.87 -199.33,-445.16 -445.16,-445.16 -245.83,0 -445.16,199.29 -445.16,445.16 0,110.26 40.13,211.15 106.54,288.91l36.18 0z"/>
  <path class="fil0" d="M512 244.47l-322.08 557.95 644.16 0 -151.02 -261.57c-65.61,66.5 -74.1,85.89 -126.54,122.4 -37.6,26.15 -60.16,64.07 -65.45,64.26 -5.32,0.19 -0.77,-13.27 -21.15,-14.71 -20.39,-1.41 -30.93,33.69 -34.49,33.17 -3.59,-0.51 -0.83,-10 0.8,-38.71 1.64,-28.75 53.82,-61.7 54.04,-76.57 0.13,-9.81 -19.74,-14.68 -29.74,-22.63 -9.97,-7.95 -23.05,-16.99 -31.38,-16.99 -8.37,0 -28.11,30.83 -31.99,38.59 -2.47,4.87 2.37,28.65 -0.67,59.65 -1.09,11.18 11.92,6.89 16.54,32.66 3.2,17.75 -5.87,36.66 -12.79,43.4 -6.96,6.73 -9.52,-18.66 -15.1,-34.04 -6.92,-19.17 -17.59,-5.74 -23.49,-10.84 -11.12,-9.61 -12.53,-34.68 -21.96,-70.06 -6.54,-24.46 -1.66,-27.72 3.21,-35.06 21.76,-32.6 35.03,-60.36 66.83,-105.2 31.5,-44.39 134.07,-15.57 214.77,-70.64l-112.5 -195.06 0 0zm-78.75 358.75c0.9,0 1.7,0.35 2.4,1.31 3.66,5.1 -1.79,5.32 -9.96,21.83 -8.15,16.51 -6.96,18.11 3.46,39.52 10.38,21.41 -7.5,36.76 -14.07,37.11 -4.23,0.23 -8.98,-12.85 -8.79,-20.99 0.2,-8.17 5.52,-14.65 1.83,-33.62 -3.65,-18.94 0.9,-18.4 8.78,-28.53 6.48,-8.3 12.38,-16.54 16.35,-16.63l0 0zm13.81 10.38c1.29,-0.06 2.47,0.51 3.47,1.76 4.26,4.72 0.41,7.92 -3.69,11.58 -4.07,3.68 -6.73,2.27 -2.05,18.36 4.71,16.12 0.86,27.12 -3.21,27.31 -4.07,0.22 -11.21,-11.83 -11.41,-27.5 -0.19,-13.27 9.94,-31.12 16.89,-31.51l0 0zm13.69 6.44c0.26,-0.03 0.58,0 0.8,0 3.88,0.23 5.07,2.63 5.29,6.32 0.19,3.65 -5.13,2.43 -5.13,9.58 0,7.15 3.53,5.1 3.72,11.19 0.22,6.12 -5.13,9 -7.37,8.81 -2.25,-0.22 -6.32,-5.13 -6.51,-17.15 0,-12.78 5.35,-18.27 9.2,-18.75l0 0zm6.67 98.85c3.14,-0.29 6.34,1.16 10.25,4.01 4.55,3.33 10.77,15.13 -3.75,31.18 -14.96,16.57 -21.76,17.06 -25.89,13.69 -4.17,-3.34 -11.7,-16.67 1.37,-32.21 7.82,-11.09 12.82,-16.22 18.02,-16.67l0 0zm-98.82 7.37c4.49,-0.03 10.61,2.09 13.4,10.32 6.09,17.98 8.27,28.34 4.01,29.01 -4.23,0.67 -5.42,0.93 -16.45,-15.96 -8.46,-14.81 -7.56,-20.19 -6.21,-21.89 0.48,-0.64 2.56,-1.45 5.25,-1.48z"/>
 </g>
</svg>
