<?xml version="1.0" encoding="UTF-8"?>
<!DOCTYPE svg PUBLIC "-//W3C//DTD SVG 1.1//EN" "http://www.w3.org/Graphics/SVG/1.1/DTD/svg11.dtd">
<!-- Creator: CorelDRAW 2021 (64 Bit) -->
<svg xmlns="http://www.w3.org/2000/svg" xml:space="preserve" width="1024px" height="1024px" version="1.1" style="shape-rendering:geometricPrecision; text-rendering:geometricPrecision; image-rendering:optimizeQuality; fill-rule:evenodd; clip-rule:evenodd"
viewBox="0 0 1024 1024"
 xmlns:xlink="http://www.w3.org/1999/xlink"
 xmlns:xodm="http://www.corel.com/coreldraw/odm/2003">
 <defs>
  <style type="text/css">
   <![CDATA[
    .fil1 {fill:#FEFEFE}
    .fil2 {fill:#FEFEFE;fill-rule:nonzero}
    .fil0 {fill:black;fill-rule:nonzero}
   ]]>
  </style>
 </defs>
 <g id="Camada_x0020_1">
  <metadata id="CorelCorpID_0Corel-Layer"/>
  <g id="_1913733769312">
   <path id="path2280" class="fil0" d="M728.77 518.14c-87.54,88.7 -98.85,114.56 -168.82,163.24 -50.13,34.88 -80.24,85.44 -87.31,85.72 -7.07,0.27 -1.06,-17.74 -28.25,-19.65 -27.19,-1.9 -41.19,45.01 -45.95,44.33 -4.78,-0.69 -1.09,-13.33 1.08,-51.67 2.18,-38.34 71.79,-82.38 72.06,-102.23 0.18,-13.06 -26.37,-19.58 -39.7,-30.18 -13.32,-10.61 -30.72,-22.57 -41.87,-22.57 -11.15,0 -37.52,41.04 -42.69,51.39 -3.26,6.52 3.22,38.33 -0.82,79.67 -1.45,14.9 15.86,9.16 22.03,43.5 4.25,23.69 -7.89,48.94 -17.13,57.92 -9.25,8.97 -12.7,-24.9 -20.12,-45.41 -9.25,-25.56 -23.39,-7.62 -31.27,-14.41 -14.85,-12.81 -16.78,-46.34 -29.37,-93.54 -8.7,-32.63 -2.17,-36.98 4.35,-46.77 29.01,-43.5 46.77,-80.48 89.19,-140.3 42,-59.24 178.76,-20.77 286.44,-94.24l-150.04 -260.24 -429.66 744.35 859.33 0 -201.48 -348.91z" sodipodi:nodetypes="csssssssssssssssssccccc"/>
   <path id="path2229" class="fil1" d="M371.25 734.4c8.76,-0.49 32.63,-20.93 18.76,-49.48 -13.87,-28.55 -15.5,-30.73 -4.62,-52.75 10.87,-22.03 18.21,-22.3 13.32,-29.1 -4.89,-6.79 -14.41,6.78 -25.02,20.4 -10.53,13.52 -16.58,12.77 -11.69,38.06 4.9,25.29 -2.17,33.99 -2.44,44.87 -0.28,10.87 6.04,28.32 11.69,28z" sodipodi:nodetypes="csssssss"/>
   <path id="path2231" class="fil1" d="M418.56 617.48c-8.43,-10.87 -27.46,18.76 -27.19,39.7 0.27,20.94 9.79,36.98 15.22,36.71 5.44,-0.27 10.61,-14.96 4.35,-36.44 -6.25,-21.48 -2.71,-19.57 2.72,-24.47 5.44,-4.89 10.61,-9.24 4.9,-15.5z"/>
   <path id="path2233" class="fil1" d="M419.92 648.75c0,-18.22 8.16,-25.28 13.32,-25.01 5.17,0.27 6.8,3.53 7.07,8.43 0.27,4.89 -6.8,3.26 -6.8,12.78 0,9.51 4.63,6.79 4.9,14.95 0.27,8.16 -6.8,11.96 -9.79,11.69 -2.99,-0.27 -8.43,-6.8 -8.7,-22.84z"/>
   <path id="path2259" class="fil1" d="M310.51 796.59c14.72,22.53 16.34,22.16 22,21.27 5.67,-0.89 2.78,-14.67 -5.35,-38.63 -5.98,-17.61 -23.2,-14.11 -24.97,-11.82 -1.76,2.28 -2.96,9.44 8.32,29.18z" sodipodi:nodetypes="csssc"/>
   <path id="path2261" class="fil1" d="M417.04 777.87c16.67,-23.68 23.82,-27.09 37.71,-16.92 6.06,4.45 14.42,20.19 -4.94,41.61 -19.98,22.12 -29.03,22.75 -34.56,18.28 -5.54,-4.47 -15.67,-22.22 1.79,-42.97z" sodipodi:nodetypes="csssc"/>
   <rect id="rect2303" class="fil2" transform="matrix(-0.5 0.866025 -0.866025 -0.5 953.082 833.64)" width="78.13" height="937.5"/>
  </g>
 </g>
</svg>
