<?xml version="1.0" encoding="UTF-8"?>
<!DOCTYPE svg PUBLIC "-//W3C//DTD SVG 1.1//EN" "http://www.w3.org/Graphics/SVG/1.1/DTD/svg11.dtd">
<!-- Creator: CorelDRAW 2021 (64 Bit) -->
<svg xmlns="http://www.w3.org/2000/svg" xml:space="preserve" width="1024px" height="1024px" version="1.1" style="shape-rendering:geometricPrecision; text-rendering:geometricPrecision; image-rendering:optimizeQuality; fill-rule:evenodd; clip-rule:evenodd"
viewBox="0 0 1024 1024"
 xmlns:xlink="http://www.w3.org/1999/xlink"
 xmlns:xodm="http://www.corel.com/coreldraw/odm/2003">
 <defs>
  <style type="text/css">
   <![CDATA[
    .fil1 {fill:black}
    .fil0 {fill:white}
   ]]>
  </style>
 </defs>
 <g id="Camada_x0020_1">
  <metadata id="CorelCorpID_0Corel-Layer"/>
  <g id="_1618539236960">
   <g>
    <polygon class="fil0" points="12,12 1012,12 1012,1012 12,1012 "/>
    <path class="fil1" d="M148.19 76.4l727.61 0 0 94.55 -209.64 0 0 316.54 -294.46 -316.54 -223.51 0 0 -94.55zm205.55 628.95l0 -318.61 301.73 318.62 220.34 0 0 94.55 -727.62 0 0 -94.55 205.55 0 0 -0.01 0 0zm-189.98 240.32l22.87 -109.26 22.44 0 -22.79 109.26 -22.52 0zm130.73 0l-20.96 0 -29.51 -73.41 -15.33 73.41 -20.95 0 22.79 -109.26 21.02 0 29.58 73.12 15.29 -73.12 20.86 0 -22.79 109.26 0 0zm85.7 0l-21.32 0 -3.94 -91.29 -17.37 91.29 -20.28 0 22.82 -109.26 32.03 0 3.36 76.55 37.27 -76.55 32.42 0 -22.89 109.26 -20.5 0 21.54 -90.64 -43.14 90.64zm64.31 0l22.82 -109.26 81 0 -3.79 18.27 -58.51 0 -5.22 24.8 56.56 0 -3.8 18.26 -56.57 0 -6.85 29.66 63.57 0 -3.86 18.27 -85.35 0 0 0 0 0zm149.36 0l-22.52 0 19.08 -90.99 -32.03 0 3.79 -18.26 86.09 0 -3.79 18.26 -31.63 0 -18.99 90.99 0 0zm68.63 0l-22.49 0 22.87 -109.26 48.51 0c8.34,0 14.86,0.87 19.48,2.57 4.66,1.74 8.43,4.87 11.28,9.43 2.85,4.57 4.27,10.11 4.27,16.62 0,9.28 -2.77,16.97 -8.34,23 -5.56,6.02 -13.99,9.76 -25.26,11.22 2.88,2.56 5.59,5.97 8.11,10.2 5.04,8.55 10.61,20.63 16.79,36.22l-24.17 0c-1.93,-6.16 -5.72,-15.77 -11.39,-28.85 -3.08,-7.04 -6.36,-11.8 -9.84,-14.22 -2.14,-1.44 -5.86,-2.17 -11.17,-2.17l-9.15 0 -9.5 45.24zm12.89 -61.63l11.93 0c12.09,0 20.1,-0.72 24.05,-2.16 3.94,-1.43 7.04,-3.69 9.28,-6.77 2.22,-3.12 3.33,-6.32 3.33,-9.7 0,-3.99 -1.6,-6.96 -4.83,-8.95 -1.99,-1.2 -6.29,-1.78 -12.9,-1.78l-24.72 0 -6.14 29.36zm81.46 18.77c0,-6.43 0.99,-13.25 2.92,-20.41 2.52,-9.59 6.38,-17.9 11.57,-24.97 5.19,-7.05 11.76,-12.62 19.64,-16.71 7.9,-4.13 16.89,-6.17 26.99,-6.17 13.5,0 24.42,4.2 32.74,12.6 8.34,8.39 12.49,19.54 12.49,33.38 0,11.54 -2.7,22.69 -8.11,33.47 -5.42,10.79 -12.78,19.08 -22.06,24.88 -9.31,5.83 -19.82,8.73 -31.54,8.73 -10.17,0 -18.72,-2.32 -25.64,-6.92 -6.89,-4.63 -11.78,-10.36 -14.67,-17.19 -2.88,-6.83 -4.33,-13.72 -4.33,-20.69zm22.2 -0.44c0,7.51 2.3,13.79 6.87,18.86 4.58,5.06 10.59,7.6 18.04,7.6 6.06,0 11.89,-2 17.48,-5.99 5.6,-4 10.2,-10.06 13.86,-18.19 3.64,-8.12 5.47,-16.03 5.47,-23.74 0,-8.59 -2.31,-15.34 -6.92,-20.22 -4.63,-4.91 -10.49,-7.35 -17.68,-7.35 -10.96,0 -19.89,5.11 -26.78,15.36 -6.87,10.23 -10.34,21.45 -10.34,33.67l0 0z"/>
   </g>
  </g>
 </g>
</svg>
