<?xml version="1.0" encoding="UTF-8"?>
<!DOCTYPE svg PUBLIC "-//W3C//DTD SVG 1.1//EN" "http://www.w3.org/Graphics/SVG/1.1/DTD/svg11.dtd">
<!-- Creator: CorelDRAW 2021 (64 Bit) -->
<svg xmlns="http://www.w3.org/2000/svg" xml:space="preserve" width="1024px" height="1024px" version="1.1" style="shape-rendering:geometricPrecision; text-rendering:geometricPrecision; image-rendering:optimizeQuality; fill-rule:evenodd; clip-rule:evenodd"
viewBox="0 0 1024 1024"
 xmlns:xlink="http://www.w3.org/1999/xlink"
 xmlns:xodm="http://www.corel.com/coreldraw/odm/2003">
 <defs>
  <style type="text/css">
   <![CDATA[
    .fil0 {fill:#0099B0;fill-rule:nonzero}
   ]]>
  </style>
 </defs>
 <g id="Camada_x0020_1">
  <metadata id="CorelCorpID_0Corel-Layer"/>
  <path class="fil0" d="M1006.56 492.19l-122.77 -22.83c-2.99,-0.56 -6.26,-3.37 -7.27,-6.25l-37.64 -87.8c-1.4,-2.72 -1.13,-6.97 0.6,-9.5l71.53 -104.27c1.71,-2.5 1.38,-6.32 -0.78,-8.48l-89.35 -89.35c-2.16,-2.15 -5.97,-2.51 -8.48,-0.78l-106.09 72.81c-2.51,1.72 -6.81,2.03 -9.54,0.68l-85.12 -34.84c-2.89,-0.95 -5.7,-4.19 -6.27,-7.18l-23.64 -127c-0.55,-3 -3.5,-5.45 -6.55,-5.45l-126.37 0c-3.04,0 -5.99,2.45 -6.55,5.45l-23.63 127c-0.56,2.99 -3.37,6.22 -6.27,7.18l-85.12 34.84c-2.74,1.34 -7.04,1.04 -9.54,-0.69l-106.09 -72.81c-2.52,-1.72 -6.34,-1.37 -8.49,0.79l-89.35 89.35c-2.15,2.16 -2.52,5.98 -0.79,8.49l71.55 104.26c1.72,2.53 1.98,6.78 0.59,9.5l-37.65 87.8c-1,2.88 -4.26,5.69 -7.26,6.25l-122.78 22.83c-3,0.57 -5.44,3.51 -5.44,6.56l0 126.37c0,3.04 2.46,6 5.45,6.55l119.76 22.29c3,0.54 6.2,3.39 7.12,6.3l37.38 93.39c1.34,2.74 1.03,7.03 -0.7,9.54l-68.04 99.14c-1.71,2.51 -1.36,6.33 0.79,8.49l89.36 89.35c2.15,2.14 5.97,2.5 8.49,0.78l97.38 -66.83c2.51,-1.72 6.71,-1.85 9.33,-0.33l42.95 22.93c2.71,1.39 5.89,0.22 7.06,-2.59l88.55 -213.96c1.17,-2.82 0,-6.41 -2.6,-8l-10.75 -6.59c-1.99,-1.21 -4.68,-3.29 -6.8,-5.2 -38.76,-24.83 -64.49,-68.26 -64.49,-117.72 0,-77.18 62.58,-139.75 139.75,-139.75 77.18,0 139.75,62.57 139.75,139.75 0,49.46 -25.72,92.89 -64.5,117.72 -2.1,1.91 -4.8,3.99 -6.78,5.2l-10.75 6.59c-2.58,1.59 -3.76,5.17 -2.6,7.99l88.55 213.97c1.16,2.82 4.33,3.98 7.06,2.6l42.94 -22.93c2.63,-1.53 6.83,-1.4 9.34,0.32l97.38 66.84c2.52,1.71 6.34,1.36 8.48,-0.78l89.37 -89.35c2.16,-2.17 2.51,-5.99 0.78,-8.5l-68.02 -99.12c-1.72,-2.52 -2.04,-6.8 -0.71,-9.54l37.39 -93.4c0.92,-2.91 4.11,-5.75 7.11,-6.3l119.76 -22.29c2.99,-0.54 5.44,-3.51 5.44,-6.55l0.02 -126.37c0.01,-3.05 -2.44,-5.99 -5.43,-6.56l-0.01 -0.01z"/>
 </g>
</svg>
