<?xml version="1.0" encoding="UTF-8"?>
<!DOCTYPE svg PUBLIC "-//W3C//DTD SVG 1.1//EN" "http://www.w3.org/Graphics/SVG/1.1/DTD/svg11.dtd">
<!-- Creator: CorelDRAW 2021 (64 Bit) -->
<svg xmlns="http://www.w3.org/2000/svg" xml:space="preserve" width="1024px" height="1024px" version="1.1" style="shape-rendering:geometricPrecision; text-rendering:geometricPrecision; image-rendering:optimizeQuality; fill-rule:evenodd; clip-rule:evenodd"
viewBox="0 0 1024 1024"
 xmlns:xlink="http://www.w3.org/1999/xlink"
 xmlns:xodm="http://www.corel.com/coreldraw/odm/2003">
 <defs>
  <style type="text/css">
   <![CDATA[
    .fil0 {fill:#0099B0;fill-rule:nonzero}
   ]]>
  </style>
 </defs>
 <g id="Camada_x0020_1">
  <metadata id="CorelCorpID_0Corel-Layer"/>
  <g id="_1617607492848">
   <g>
    <g>
     <path class="fil0" d="M877.85 330.26l-90.83 -16.89c-2.2,-0.41 -4.63,-2.49 -5.37,-4.62l-27.84 -64.95c-1.04,-2.01 -0.84,-5.16 0.44,-7.02l52.92 -77.14c1.26,-1.85 1.01,-4.67 -0.58,-6.27l-66.1 -66.09c-1.6,-1.6 -4.41,-1.86 -6.27,-0.59l-78.48 53.86c-1.86,1.28 -5.04,1.51 -7.06,0.51l-62.96 -25.77c-2.14,-0.71 -4.22,-3.1 -4.64,-5.32l-17.49 -93.94c-0.41,-2.22 -2.59,-4.03 -4.84,-4.03l-93.48 0c-2.26,0 -4.44,1.81 -4.85,4.03l-17.48 93.94c-0.42,2.22 -2.5,4.61 -4.64,5.31l-62.97 25.78c-2.02,0.99 -5.2,0.77 -7.05,-0.51l-78.48 -53.86c-1.86,-1.27 -4.69,-1.01 -6.28,0.58l-66.1 66.1c-1.59,1.6 -1.86,4.42 -0.58,6.28l52.93 77.13c1.27,1.86 1.47,5.01 0.43,7.02l-27.84 64.95c-0.74,2.13 -3.16,4.21 -5.38,4.62l-90.82 16.89c-2.22,0.42 -4.03,2.6 -4.03,4.85l0.01 93.48c0,2.26 1.81,4.45 4.03,4.85l88.59 16.49c2.22,0.4 4.58,2.51 5.26,4.66l27.66 69.09c0.99,2.02 0.76,5.2 -0.52,7.05l-50.33 73.33c-1.27,1.86 -1.01,4.69 0.58,6.29l66.11 66.09c1.58,1.59 4.41,1.85 6.27,0.58l72.04 -49.44c1.85,-1.27 4.97,-1.37 6.9,-0.24l31.77 16.96c2.01,1.03 4.36,0.17 5.22,-1.92l65.51 -158.27c0.86,-2.08 0,-4.74 -1.93,-5.92l-7.95 -4.87c-1.47,-0.89 -3.46,-2.43 -5.02,-3.85 -28.68,-18.37 -47.71,-50.49 -47.71,-87.08 0,-57.1 46.29,-103.38 103.38,-103.38 57.09,0 103.37,46.28 103.37,103.38 0,36.59 -19.02,68.71 -47.71,87.08 -1.55,1.41 -3.55,2.96 -5.02,3.85l-7.95 4.87c-1.91,1.18 -2.78,3.83 -1.92,5.91l65.5 158.29c0.86,2.08 3.21,2.94 5.22,1.92l31.77 -16.96c1.95,-1.13 5.05,-1.04 6.91,0.24l72.04 49.44c1.86,1.26 4.68,1 6.27,-0.58l66.1 -66.1c1.6,-1.6 1.86,-4.42 0.58,-6.28l-50.32 -73.33c-1.27,-1.86 -1.5,-5.03 -0.52,-7.05l27.66 -69.09c0.68,-2.15 3.04,-4.26 5.26,-4.66l88.59 -16.49c2.21,-0.4 4.03,-2.6 4.03,-4.85l0.01 -93.48c0.01,-2.26 -1.81,-4.43 -4.02,-4.85l0 -0.01zm-589.73 680.56l19.96 0 0 -67.7c0,-24.45 -16.83,-32.68 -41.29,-32.68 -14.87,0 -25.83,3.91 -33.46,14.48l15.65 11.94c3.52,-5.68 8.42,-7.64 18.79,-7.64 14.28,0 20.35,3.34 20.35,12.72l0 10.37 -27.6 0c-21.32,0 -32.28,13.51 -32.28,29.36 0,17.22 12.91,30.33 35.03,30.33 13.5,0 20.35,-3.13 24.45,-9.99l0.4 0 0 8.81 0 0zm0 -34.84c0,15.47 -5.68,17.22 -22.31,17.22 -13.5,0 -18.79,-5.87 -18.79,-12.51 0,-7.25 5.48,-11.95 17.23,-11.95l23.87 0 0 7.24zm41.88 34.84l19.96 0 0 -59.69c0,-14.47 9.59,-20.74 19.37,-20.74 5.09,0 8.42,1.37 13.11,4.9l14.48 -17.22c-6.07,-4.7 -12.71,-7.63 -20.74,-7.63 -10.56,0 -19.57,3.92 -25.83,11.74l-0.39 0 0 -10.56 -19.96 0 0 99.2zm126.62 0l19.95 0 0 -139.33 -19.95 0 0 50.69c-7.44,-7.04 -15.46,-11.74 -25.64,-11.74 -12.13,0 -20.94,5.47 -26.61,12.92 -5.48,7.03 -7.04,13.48 -7.04,37.77 0,24.45 1.56,30.9 7.04,37.95 5.68,7.43 14.48,12.92 26.61,12.92 10.18,0 19.38,-4.71 25.64,-11.55l0 10.37 0 0zm-19.57 -80.43c18.59,0 19.57,16.45 19.57,30.74 0,14.48 -0.98,30.9 -19.57,30.9 -18.79,0 -19.77,-15.45 -19.77,-30.9 0,-15.27 0.98,-30.74 19.77,-30.74zm141.38 80.43l17.62 0 31.69 -99.2 -21.14 0 -18.96 69.46 -0.41 0 -22.5 -69.46 -14.48 0 -22.5 69.46 -0.39 0 -18.98 -69.46 -21.12 0 31.69 99.2 17.61 0 20.74 -69.47 0.39 0 20.74 69.47zm110.74 0l19.96 0 0 -67.7c0,-24.45 -16.83,-32.68 -41.29,-32.68 -14.86,0 -25.83,3.91 -33.46,14.48l15.65 11.94c3.53,-5.68 8.41,-7.64 18.78,-7.64 14.29,0 20.35,3.34 20.35,12.72l0 10.37 -27.59 0c-21.32,0 -32.28,13.51 -32.28,29.36 0,17.22 12.91,30.33 35.02,30.33 13.5,0 20.36,-3.13 24.47,-9.99l0.38 0 0 8.81 0.01 0 0 0zm0 -34.84c0,15.47 -5.67,17.22 -22.3,17.22 -13.5,0 -18.79,-5.87 -18.79,-12.51 0,-7.25 5.48,-11.95 17.22,-11.95l23.87 0 0 7.24zm41.89 34.84l19.95 0 0 -59.69c0,-14.47 9.58,-20.74 19.37,-20.74 5.1,0 8.42,1.37 13.11,4.9l14.48 -17.22c-6.06,-4.7 -12.72,-7.63 -20.74,-7.63 -10.56,0 -19.56,3.92 -25.82,11.74l-0.4 0 0 -10.56 -19.95 0 0 99.2zm149.07 -42.07l0 -16.45c0,-25.63 -18.98,-41.87 -40.89,-41.87 -19.18,0 -40.89,12.52 -40.89,51.07 0,40.7 23.67,50.49 44.02,50.49 13.31,0 26.02,-4.7 35.81,-16.04l-14.49 -12.34c-5.87,6.08 -14.09,9.6 -21.71,9.6 -13.7,0 -23.67,-8.23 -23.67,-24.46l61.82 0zm-61.82 -16.44c0.38,-15.07 9.19,-23.1 20.93,-23.1 11.74,0 20.36,8.03 20.94,23.1l-41.87 0zm-782.12 -147.89c0,21.52 3.13,29.75 10.76,38.16 5.48,6.07 14.68,12.71 30.14,12.71 15.45,0 24.65,-6.64 30.13,-12.71 7.63,-8.41 10.76,-16.64 10.76,-38.16 0,-21.33 -3.13,-29.54 -10.76,-37.96 -5.48,-6.06 -14.68,-12.72 -30.13,-12.72 -15.46,0 -24.66,6.66 -30.14,12.72 -7.63,8.43 -10.76,16.64 -10.76,37.97l0 -0.01zm61.83 0.2c0,14.29 -1.17,18.2 -4.89,23.48 -2.94,4.11 -9.2,7.25 -16.04,7.25 -6.85,0 -13.11,-3.13 -16.05,-7.25 -3.72,-5.28 -4.89,-9.19 -4.89,-23.67 0,-14.29 1.17,-18.21 4.89,-23.48 2.94,-4.11 9.2,-7.24 16.05,-7.24 6.84,0 13.1,3.12 16.04,7.24 3.72,5.28 4.89,9.19 4.89,23.67l0 0zm211.49 7.44l0 -16.44c0,-25.64 -18.98,-41.88 -40.89,-41.88 -19.19,0 -40.9,12.53 -40.9,51.07 0,40.69 23.68,50.48 44.02,50.48 13.32,0 26.03,-4.69 35.81,-16.04l-14.48 -12.32c-5.87,6.07 -14.08,9.59 -21.71,9.59 -13.7,0 -23.68,-8.22 -23.68,-24.46l61.83 0zm-61.83 -16.43c0.39,-15.08 9.2,-23.1 20.94,-23.1 11.74,0 20.35,8.02 20.93,23.1l-41.88 0 0.01 0zm78.86 58.49l19.96 0 0 -59.08c0,-13.51 8.41,-21.33 19.76,-21.33 11.16,0 19.57,7.82 19.57,21.33l0 59.08 19.96 0 0 -65.94c0,-22.51 -17.61,-34.44 -33.07,-34.44 -10.56,0 -19.57,3.92 -25.82,11.74l-0.4 0 0 -10.56 -19.96 0 0 99.2 0 0zm133.21 -16.62c12.72,11.93 27.59,17.8 43.64,17.8 23.08,0 41.09,-11.15 41.09,-30.53 0,-15.84 -8.21,-28.37 -28.77,-29.74l-16.44 -1.16c-9.97,-0.79 -13.1,-5.1 -13.1,-9.4 0,-6.84 4.3,-11.94 17.02,-11.94 10.77,0 18.79,3.73 26.62,9.2l12.32 -14.47c-9.79,-8.22 -21.52,-13.51 -38.95,-13.51 -20.93,0 -36.98,10.37 -36.98,30.53 0,17.01 12.14,26.8 28.57,28.17l17.61 1.57c6.86,0.58 12.13,2.74 12.13,9.78 0,8.42 -8.22,12.71 -19.56,12.71 -13.31,0 -22.7,-4.29 -31.31,-12.71l-13.89 13.69 0 0.01zm96.08 -33.08c0,21.52 3.13,29.75 10.76,38.16 5.48,6.07 14.68,12.71 30.13,12.71 15.47,0 24.65,-6.64 30.14,-12.71 7.63,-8.41 10.76,-16.64 10.76,-38.16 0,-21.33 -3.13,-29.54 -10.76,-37.96 -5.48,-6.06 -14.67,-12.72 -30.14,-12.72 -15.45,0 -24.65,6.66 -30.13,12.72 -7.63,8.42 -10.76,16.63 -10.76,37.96l0 0zm61.83 0.2c0,14.29 -1.17,18.19 -4.89,23.48 -2.94,4.11 -9.2,7.24 -16.05,7.24 -6.84,0 -13.11,-3.12 -16.03,-7.24 -3.73,-5.29 -4.9,-9.19 -4.9,-23.68 0,-14.28 1.17,-18.2 4.9,-23.48 2.92,-4.11 9.19,-7.24 16.03,-7.24 6.85,0 13.11,3.13 16.05,7.24 3.72,5.28 4.89,9.2 4.89,23.68l0 0zm36.99 16.24c0,22.5 17.62,34.43 33.27,34.43 10.36,0 19.37,-3.91 25.63,-11.74l0.39 0 0 10.58 19.95 0 0 -99.21 -19.95 0 0 59.09c0,13.5 -8.42,21.33 -19.58,21.33 -11.34,0 -19.75,-7.84 -19.75,-21.33l0 -59.09 -19.96 0 0 65.94zm101.13 33.26l19.96 0 0 -59.68c0,-14.48 9.58,-20.74 19.37,-20.74 5.1,0 8.42,1.37 13.11,4.89l14.49 -17.22c-6.08,-4.7 -12.72,-7.63 -20.75,-7.63 -10.56,0 -19.57,3.92 -25.83,11.74l-0.39 0 0 -10.56 -19.96 0 0 99.2 0 0zm130.49 -29.15c-4.9,6.07 -11.94,10.37 -20.15,10.37 -16.24,0 -25.83,-9.2 -25.83,-30.73 0,-21.71 9.59,-30.91 25.83,-30.91 8.21,0 15.26,4.3 20.15,10.37l14.67 -13.11c-8.6,-9.98 -20.55,-17.22 -35.61,-17.22 -22.89,0 -45,14.48 -45,50.87 0,36.21 22.11,50.68 45,50.68 15.06,0 27.01,-7.24 35.61,-17.21l-14.67 -13.11zm101.54 -12.91l0 -16.44c0,-25.64 -18.99,-41.88 -40.9,-41.88 -19.19,0 -40.89,12.53 -40.89,51.07 0,40.69 23.67,50.48 44.03,50.48 13.3,0 26.02,-4.69 35.8,-16.04l-14.48 -12.32c-5.88,6.07 -14.09,9.59 -21.72,9.59 -13.7,0 -23.67,-8.22 -23.67,-24.46l61.83 0zm-61.83 -16.43c0.39,-15.08 9.19,-23.1 20.93,-23.1 11.74,0 20.35,8.02 20.94,23.1l-41.87 0zm-751.44 39.71c18.79,0 19.77,-15.46 19.77,-30.72 0,-15.47 -0.98,-30.92 -19.77,-30.92 -18.58,0 -19.57,16.44 -19.57,30.92 0,14.29 0.98,30.72 19.57,30.72zm-39.6 175.48l0 -255.9 20.03 0 0 10.37c6.27,-6.85 15.46,-11.55 25.64,-11.55 12.13,0 20.94,5.49 26.61,12.92 5.48,7.05 7.04,13.5 7.04,37.97 0,24.26 -1.56,30.72 -7.04,37.75 -5.67,7.44 -14.48,12.92 -26.61,12.92 -10.18,0 -18.2,-4.69 -25.64,-11.74l-0.07 78.62c6.65,-7.82 15.66,-11.74 26.22,-11.74 15.46,0 33.06,11.94 33.06,34.43l0 65.95 -19.95 0 0 -59.09c0,-13.51 -8.42,-21.33 -19.57,-21.33 -11.35,0 -19.76,7.82 -19.76,21.33l0 59.09 -19.96 0z"/>
    </g>
   </g>
  </g>
 </g>
</svg>
