<?xml version="1.0" encoding="UTF-8"?>
<!DOCTYPE svg PUBLIC "-//W3C//DTD SVG 1.1//EN" "http://www.w3.org/Graphics/SVG/1.1/DTD/svg11.dtd">
<!-- Creator: CorelDRAW 2021 (64 Bit) -->
<svg xmlns="http://www.w3.org/2000/svg" xml:space="preserve" width="1024px" height="1024px" version="1.1" style="shape-rendering:geometricPrecision; text-rendering:geometricPrecision; image-rendering:optimizeQuality; fill-rule:evenodd; clip-rule:evenodd"
viewBox="0 0 1024 1024"
 xmlns:xlink="http://www.w3.org/1999/xlink"
 xmlns:xodm="http://www.corel.com/coreldraw/odm/2003">
 <defs>
  <style type="text/css">
   <![CDATA[
    .fil0 {fill:black;fill-rule:nonzero}
   ]]>
  </style>
 </defs>
 <g id="Camada_x0020_1">
  <metadata id="CorelCorpID_0Corel-Layer"/>
  <g id="_1617612579296">
   <g>
    <path class="fil0" d="M469.66 678.73l-263.4 0 0 -21.34 263.4 0 10.67 10.66 -10.67 10.68zm0 -21.34l10.65 0 0.02 10.66 -10.67 -10.66zm-10.4 253.66l-0.27 -242.98 21.34 -0.02 0.27 242.97 -10.67 10.69 -10.67 -10.66zm21.34 -0.03l0.01 10.69 -10.68 0 10.67 -10.69zm-214.18 -10.65l203.51 0 0 21.34 -203.51 0 -0.49 -21.33 0.49 -0.01zm-0.49 0.01l0.24 -0.01 0.25 0 -0.49 0.01zm-111.49 -47.16l18.26 -11.05 0.51 0.96 2.8 5.51 2.98 5.12 3.14 4.76 3.29 4.4 3.41 4.08 3.53 3.76 3.62 3.47 3.71 3.19 3.77 2.91 3.82 2.66 3.86 2.42 3.87 2.18 3.88 1.97 3.85 1.76 3.81 1.56 3.76 1.37 3.68 1.2 3.58 1.03 3.47 0.88 3.33 0.75 3.16 0.61 2.99 0.49 2.79 0.39 2.57 0.29 2.33 0.21 2.06 0.15 1.78 0.08 1.48 0.05 1.15 0.01 0.81 0 0.46 -0.01 -0.02 0 0.97 21.32 -0.42 0.01 -0.75 0.01 -1.15 0.01 -1.52 -0.02 -1.87 -0.05 -2.2 -0.11 -2.51 -0.18 -2.79 -0.25 -3.07 -0.35 -3.31 -0.46 -3.54 -0.59 -3.75 -0.72 -3.94 -0.88 -4.1 -1.04 -4.26 -1.23 -4.39 -1.43 -4.49 -1.64 -4.58 -1.88 -4.64 -2.12 -4.69 -2.38 -4.71 -2.66 -4.71 -2.95 -4.68 -3.26 -4.63 -3.58 -4.56 -3.92 -4.45 -4.26 -4.34 -4.62 -4.18 -5 -4.01 -5.38 -3.81 -5.77 -3.59 -6.17 -3.34 -6.56 0.52 0.95zm18.26 -11.05l0.27 0.46 0.24 0.5 -0.51 -0.96zm-17.64 -105.68l18.64 10.4 -0.2 0.33 -2.57 4.53 -2.25 4.49 -1.93 4.45 -1.64 4.41 -1.37 4.37 -1.11 4.32 -0.87 4.26 -0.64 4.2 -0.43 4.14 -0.24 4.05 -0.06 3.98 0.11 3.89 0.25 3.79 0.39 3.68 0.51 3.56 0.61 3.44 0.7 3.3 0.77 3.15 0.82 2.99 0.87 2.83 0.88 2.65 0.9 2.46 0.88 2.27 0.85 2.05 0.81 1.84 0.75 1.6 0.67 1.37 0.57 1.13 0.46 0.86 0.33 0.58 0.19 0.33 -0.01 -0.02 -18.26 11.05 -0.19 -0.33 -0.33 -0.56 -0.49 -0.89 -0.63 -1.17 -0.74 -1.45 -0.84 -1.72 -0.92 -1.99 -0.99 -2.24 -1.03 -2.48 -1.06 -2.72 -1.07 -2.95 -1.06 -3.17 -1.03 -3.38 -0.99 -3.58 -0.92 -3.78 -0.84 -3.96 -0.74 -4.15 -0.61 -4.31 -0.47 -4.46 -0.31 -4.63 -0.13 -4.76 0.07 -4.89 0.3 -5.01 0.54 -5.12 0.8 -5.22 1.08 -5.3 1.38 -5.38 1.7 -5.43 2.03 -5.48 2.4 -5.5 2.76 -5.53 3.14 -5.52 -0.19 0.33zm18.64 10.4l-0.09 0.16 -0.11 0.17 0.2 -0.33zm44.17 -79.19l-44.17 79.19 -18.64 -10.4 44.18 -79.18 0.13 -0.25 18.5 10.64zm-18.63 -10.39l0.08 -0.16 0.05 -0.09 -0.13 0.25zm100.96 -128.51l-82.47 139.14 -18.36 -10.88 82.47 -139.14 14.72 -3.68 3.64 14.56zm-18.36 -10.88l5.5 -9.28 9.22 5.6 -14.72 3.68zm96.08 70.73l-92.44 -56.17 11.08 -18.24 92.44 56.17 3.54 3.51 -14.62 14.73zm-117.97 -229.09l132.59 214.36 -18.15 11.22 -132.59 -214.35 9.07 -16.29 9.08 5.06zm-9.08 -5.06l5.95 0 3.13 5.06 -9.08 -5.06zm-238.88 0.14l238.88 -0.14 0.01 21.34 -238.88 0.14 -5.47 -1.51 5.46 -19.83zm75.43 68.09l-80.89 -48.26 10.94 -18.32 80.88 48.26 3.72 14.59 -14.65 3.73zm10.93 -18.32l9.14 5.44 -5.42 9.15 -3.72 -14.59zm-76.48 108.16l61.83 -104.44 18.37 10.87 -61.83 104.44 -0.03 0.04 -18.34 -10.91zm18.37 10.87l-0.03 0.04 0.08 -0.13 -0.05 0.09zm-2.59 61.19l-18.85 10 -0.1 -0.19 -0.14 -0.28 -0.21 -0.44 -0.29 -0.65 -0.38 -0.84 -0.44 -1.05 -0.5 -1.24 -0.54 -1.42 -0.58 -1.59 -0.6 -1.77 -0.61 -1.92 -0.61 -2.09 -0.6 -2.23 -0.57 -2.39 -0.54 -2.52 -0.5 -2.65 -0.44 -2.79 -0.37 -2.9 -0.29 -3.02 -0.2 -3.12 -0.09 -3.23 0.02 -3.32 0.16 -3.42 0.31 -3.48 0.45 -3.57 0.63 -3.63 0.81 -3.68 1 -3.72 1.21 -3.77 1.42 -3.79 1.66 -3.8 1.89 -3.8 2.14 -3.8 18.31 10.96 -1.6 2.84 -1.4 2.82 -1.22 2.81 -1.05 2.79 -0.89 2.77 -0.74 2.76 -0.6 2.72 -0.47 2.7 -0.34 2.66 -0.22 2.63 -0.12 2.58 -0.02 2.53 0.07 2.47 0.15 2.4 0.23 2.34 0.28 2.26 0.35 2.17 0.39 2.08 0.42 1.97 0.46 1.87 0.47 1.75 0.47 1.63 0.48 1.5 0.46 1.36 0.43 1.2 0.41 1.06 0.36 0.89 0.31 0.73 0.24 0.56 0.17 0.37 0.09 0.18 -0.03 -0.06 -0.1 -0.19zm-18.85 10l-0.03 -0.06 -0.07 -0.13 0.1 0.19zm127.45 240.4l-127.45 -240.4 18.85 -10 127.46 240.41 -18.86 9.99z"/>
   </g>
   <g>
    <path class="fil0" d="M693.31 442.91l131.24 228.37 -18.5 10.64 -131.25 -228.38 3.93 -14.56 14.58 3.93zm-18.51 10.63l-5.31 -9.24 9.24 -5.32 -3.93 14.56zm225.12 -117.37l-210.54 121.3 -10.65 -18.49 210.54 -121.3 14.58 3.92 -3.93 14.57zm-10.65 -18.49l9.26 -5.34 5.32 9.26 -14.58 -3.92zm97.48 191l-101.4 -176.44 18.5 -10.64 101.4 176.45 -18.25 11.04 -0.25 -0.41zm0.25 0.41l-0.13 -0.19 -0.12 -0.22 0.25 0.41zm14.68 120.16l-18.69 -10.3 0.58 -0.94 3.38 -5.17 2.95 -5.14 2.56 -5.09 2.18 -5.04 1.84 -5 1.5 -4.93 1.2 -4.87 0.91 -4.8 0.65 -4.73 0.4 -4.63 0.18 -4.55 -0.04 -4.45 -0.22 -4.34 -0.4 -4.21 -0.54 -4.09 -0.69 -3.94 -0.79 -3.79 -0.89 -3.62 -0.96 -3.44 -1.02 -3.26 -1.05 -3.05 -1.06 -2.83 -1.05 -2.62 -1.03 -2.37 -0.97 -2.12 -0.91 -1.87 -0.8 -1.58 -0.7 -1.3 -0.56 -1.01 -0.41 -0.69 -0.24 -0.4 0.01 0.01 18 -11.46 0.22 0.36 0.39 0.64 0.58 1 0.74 1.33 0.88 1.65 1.01 1.96 1.09 2.26 1.17 2.55 1.22 2.83 1.25 3.1 1.26 3.36 1.24 3.62 1.2 3.85 1.14 4.08 1.06 4.3 0.95 4.51 0.81 4.71 0.66 4.91 0.47 5.08 0.27 5.25 0.05 5.41 -0.22 5.55 -0.49 5.68 -0.8 5.8 -1.12 5.91 -1.48 5.99 -1.85 6.06 -2.24 6.11 -2.67 6.16 -3.1 6.18 -3.56 6.18 -4.03 6.17 0.58 -0.93zm-18.69 -10.3l0.26 -0.48 0.32 -0.46 -0.58 0.94zm-83.31 68.8l-0.07 -21.34 0.28 0 5.2 -0.02 5.01 -0.3 4.82 -0.55 4.64 -0.79 4.47 -1.01 4.3 -1.2 4.14 -1.4 3.97 -1.56 3.81 -1.71 3.65 -1.85 3.49 -1.96 3.34 -2.07 3.18 -2.14 3.01 -2.21 2.86 -2.26 2.7 -2.28 2.53 -2.29 2.37 -2.28 2.2 -2.25 2.05 -2.19 1.87 -2.13 1.71 -2.04 1.54 -1.93 1.37 -1.8 1.21 -1.65 1.03 -1.47 0.87 -1.29 0.69 -1.07 0.53 -0.85 0.36 -0.61 0.19 -0.33 -0.01 0.03 18.69 10.3 -0.19 0.33 -0.33 0.58 -0.53 0.86 -0.7 1.14 -0.9 1.39 -1.09 1.61 -1.27 1.81 -1.46 2 -1.65 2.16 -1.84 2.31 -2.04 2.43 -2.23 2.54 -2.43 2.61 -2.63 2.68 -2.83 2.72 -3.04 2.75 -3.24 2.74 -3.44 2.72 -3.66 2.68 -3.87 2.61 -4.08 2.52 -4.29 2.41 -4.51 2.28 -4.72 2.12 -4.94 1.94 -5.15 1.74 -5.36 1.51 -5.57 1.25 -5.78 0.98 -5.98 0.68 -6.17 0.37 -6.37 0.03 0.29 0zm-0.07 -21.34l0.16 0 0.12 0 -0.28 0zm-90.29 0.3l90.29 -0.3 0.07 21.34 -90.29 0.3 -0.18 0 0.11 -21.34zm0.07 21.34l-0.07 0 -0.11 0 0.18 0zm-161.62 -23.53l161.73 2.19 -0.29 21.34 -161.73 -2.19 -10.53 -10.93 10.82 -10.41zm-0.29 21.34l-10.79 -0.15 0.26 -10.78 10.53 10.93zm13.44 -118.53l-2.63 108.12 -21.34 -0.52 2.63 -108.12 1.28 -4.81 20.06 5.33zm-139.83 216.43l119.77 -221.76 18.78 10.14 -119.78 221.76 -18.63 0.25 -0.14 -10.39zm0.14 10.39l-2.97 -5.16 2.83 -5.23 0.14 10.39zm119.13 207.05l-119.13 -207.05 18.49 -10.64 119.14 207.04 1.42 5.5 -19.92 5.15zm21.46 -99.33l-1.54 94.18 -21.34 -0.35 1.54 -94.18 10.81 -10.49 10.53 10.84zm-21.34 -0.35l0.17 -10.63 10.64 0.14 -10.81 10.49zm131.88 12.41l-121.35 -1.57 0.28 -21.33 121.35 1.57 0.05 0 -0.33 21.33zm0.28 -21.33l0.05 0 0.14 0 -0.19 0zm54.35 -28.25l18.07 11.36 -0.12 0.19 -0.17 0.25 -0.28 0.4 -0.41 0.58 -0.55 0.75 -0.69 0.91 -0.82 1.04 -0.96 1.18 -1.1 1.29 -1.23 1.4 -1.37 1.49 -1.5 1.57 -1.65 1.63 -1.77 1.69 -1.92 1.73 -2.05 1.75 -2.2 1.77 -2.33 1.77 -2.47 1.75 -2.62 1.73 -2.75 1.68 -2.89 1.64 -3.04 1.56 -3.18 1.48 -3.31 1.38 -3.46 1.26 -3.6 1.14 -3.73 0.98 -3.87 0.83 -3.99 0.65 -4.12 0.46 -4.24 0.26 -4.36 0.03 0.38 -21.33 3.25 -0.03 3.15 -0.19 3.04 -0.34 2.95 -0.48 2.85 -0.61 2.75 -0.73 2.67 -0.84 2.57 -0.94 2.48 -1.03 2.39 -1.11 2.29 -1.19 2.21 -1.24 2.11 -1.29 2.01 -1.33 1.91 -1.36 1.81 -1.38 1.71 -1.38 1.61 -1.37 1.5 -1.35 1.4 -1.33 1.28 -1.28 1.18 -1.22 1.06 -1.16 0.95 -1.07 0.83 -0.99 0.71 -0.87 0.6 -0.76 0.48 -0.63 0.36 -0.49 0.24 -0.34 0.11 -0.17 -0.04 0.06 -0.12 0.19zm18.07 11.36l-0.06 0.09 -0.06 0.1 0.12 -0.19zm144.93 -230.29l-144.93 230.29 -18.07 -11.36 144.94 -230.3 18.06 11.37z"/>
   </g>
   <g>
    <path class="fil0" d="M383.83 378.01l127.35 -230.56 18.68 10.31 -127.35 230.57 -14.49 4.19 -4.19 -14.51zm18.68 10.32l-5.15 9.33 -9.34 -5.14 14.49 -4.19zm-217.01 -131.76l212.82 117.26 -10.3 18.69 -212.82 -117.27 -4.19 -14.5 14.49 -4.18zm-10.3 18.68l-9.36 -5.15 5.17 -9.35 4.19 14.5zm112.88 -182.3l-98.39 178.12 -18.68 -10.32 98.39 -178.12 18.9 9.89 -0.22 0.43zm0.22 -0.43l-0.12 0.23 -0.1 0.2 0.22 -0.43zm95.3 -74.82l0.6 21.33 -0.96 -0.02 -6.18 -0.21 -5.92 0.13 -5.68 0.46 -5.44 0.74 -5.22 1.02 -5 1.27 -4.79 1.5 -4.58 1.7 -4.37 1.89 -4.18 2.07 -3.98 2.2 -3.78 2.34 -3.6 2.44 -3.4 2.52 -3.21 2.59 -3.02 2.62 -2.83 2.64 -2.63 2.64 -2.45 2.61 -2.26 2.55 -2.07 2.48 -1.87 2.38 -1.69 2.26 -1.5 2.1 -1.31 1.94 -1.13 1.73 -0.94 1.52 -0.75 1.27 -0.57 1.01 -0.38 0.7 -0.21 0.4 0 0 -19.13 -9.46 0.19 -0.38 0.35 -0.66 0.55 -1.02 0.76 -1.32 0.95 -1.61 1.16 -1.87 1.37 -2.11 1.57 -2.32 1.79 -2.52 2 -2.67 2.23 -2.82 2.44 -2.93 2.68 -3.03 2.9 -3.09 3.13 -3.13 3.37 -3.15 3.61 -3.13 3.86 -3.11 4.1 -3.04 4.35 -2.95 4.6 -2.84 4.86 -2.69 5.12 -2.53 5.37 -2.32 5.63 -2.1 5.89 -1.84 6.14 -1.56 6.4 -1.24 6.64 -0.91 6.89 -0.55 7.13 -0.16 7.36 0.25 -0.96 -0.01zm0.6 21.33l-0.49 0.01 -0.47 -0.03 0.96 0.02zm100.76 36.27l-18.03 11.42 -0.24 -0.39 -2.72 -4.46 -2.84 -4.14 -2.97 -3.86 -3.07 -3.59 -3.16 -3.33 -3.24 -3.08 -3.31 -2.84 -3.36 -2.62 -3.4 -2.4 -3.43 -2.2 -3.45 -2 -3.44 -1.82 -3.43 -1.64 -3.4 -1.47 -3.35 -1.31 -3.29 -1.15 -3.22 -1.02 -3.12 -0.88 -3.01 -0.75 -2.87 -0.64 -2.74 -0.53 -2.58 -0.44 -2.39 -0.35 -2.2 -0.26 -1.99 -0.2 -1.75 -0.15 -1.52 -0.09 -1.25 -0.05 -0.96 -0.03 -0.68 0 -0.38 0 0.03 0 -0.6 -21.33 0.39 -0.01 0.65 0 0.99 0.01 1.33 0.03 1.62 0.07 1.9 0.12 2.17 0.17 2.43 0.25 2.66 0.32 2.88 0.42 3.08 0.52 3.26 0.64 3.45 0.76 3.59 0.9 3.73 1.06 3.85 1.21 3.96 1.4 4.05 1.58 4.12 1.78 4.17 1.99 4.21 2.22 4.22 2.46 4.23 2.71 4.2 2.97 4.16 3.24 4.1 3.53 4.03 3.82 3.91 4.12 3.8 4.44 3.66 4.76 3.49 5.09 3.31 5.41 -0.24 -0.39zm-18.03 11.42l-0.12 -0.19 -0.12 -0.2 0.24 0.39zm48.32 76.28l-48.32 -76.28 18.03 -11.42 48.32 76.28 0.19 0.31 -18.22 11.11zm18.03 -11.42l0.09 0.15 0.1 0.16 -0.19 -0.31zm63.7 150.59l-81.92 -139.48 18.41 -10.8 81.91 139.47 -3.89 14.66 -14.51 -3.85zm18.4 -10.81l5.46 9.3 -9.35 5.36 3.89 -14.66zm-108.34 49.91l93.84 -53.77 10.61 18.52 -93.85 53.77 -4.77 1.4 -5.83 -19.92zm257.55 7.48l-251.72 12.44 -1.06 -21.32 251.72 -12.43 9.87 15.81 -8.81 5.5zm8.81 -5.5l-2.87 5.21 -5.94 0.29 8.81 -5.5zm115.39 -209.16l-115.39 209.16 -18.68 -10.31 115.39 -209.16 3.96 -4.06 14.72 14.37zm-96.07 33.1l81.35 -47.47 10.76 18.43 -81.35 47.48 -14.58 -3.81 3.82 -14.63zm10.76 18.44l-9.19 5.36 -5.39 -9.17 14.58 3.81zm-57.7 -119.25l61.52 104.62 -18.4 10.82 -61.52 -104.62 -0.02 -0.04 18.42 -10.78zm-18.4 10.82l-0.02 -0.04 -0.05 -0.08 0.07 0.12zm-52.32 -31.85l0.37 -21.34 0.21 0.01 0.32 0.02 0.47 0.02 0.71 0.06 0.92 0.08 1.14 0.12 1.32 0.16 1.51 0.21 1.67 0.27 1.83 0.33 1.99 0.4 2.12 0.47 2.25 0.56 2.36 0.64 2.47 0.75 2.57 0.85 2.64 0.96 2.72 1.07 2.78 1.21 2.84 1.34 2.87 1.48 2.89 1.63 2.91 1.79 2.91 1.95 2.9 2.12 2.87 2.3 2.84 2.49 2.77 2.68 2.72 2.88 2.62 3.08 2.53 3.28 2.42 3.5 2.28 3.71 -18.44 10.73 -1.71 -2.77 -1.79 -2.59 -1.87 -2.43 -1.94 -2.27 -1.99 -2.12 -2.06 -1.98 -2.1 -1.84 -2.13 -1.71 -2.17 -1.59 -2.19 -1.47 -2.2 -1.35 -2.2 -1.24 -2.2 -1.13 -2.18 -1.03 -2.15 -0.93 -2.12 -0.84 -2.07 -0.75 -2 -0.67 -1.94 -0.58 -1.86 -0.51 -1.76 -0.43 -1.65 -0.37 -1.54 -0.31 -1.41 -0.25 -1.28 -0.21 -1.12 -0.15 -0.95 -0.12 -0.78 -0.08 -0.61 -0.05 -0.41 -0.04 -0.22 -0.01 0.08 0.01 0.22 0zm0.37 -21.34l0.1 0.01 0.11 0 -0.21 -0.01zm-272.06 -4.67l272.06 4.67 -0.37 21.34 -272.06 -4.67 0.37 -21.34z"/>
   </g>
  </g>
 </g>
</svg>
