<?xml version="1.0" encoding="UTF-8"?>
<!DOCTYPE svg PUBLIC "-//W3C//DTD SVG 1.1//EN" "http://www.w3.org/Graphics/SVG/1.1/DTD/svg11.dtd">
<!-- Creator: CorelDRAW 2021 (64 Bit) -->
<svg xmlns="http://www.w3.org/2000/svg" xml:space="preserve" width="1024px" height="1024px" version="1.1" style="shape-rendering:geometricPrecision; text-rendering:geometricPrecision; image-rendering:optimizeQuality; fill-rule:evenodd; clip-rule:evenodd"
viewBox="0 0 1024 1024"
 xmlns:xlink="http://www.w3.org/1999/xlink"
 xmlns:xodm="http://www.corel.com/coreldraw/odm/2003">
 <defs>
  <style type="text/css">
   <![CDATA[
    .fil0 {fill:#373435}
   ]]>
  </style>
 </defs>
 <g id="Camada_x0020_1">
  <metadata id="CorelCorpID_0Corel-Layer"/>
  <g id="_1617955121024">
   <path class="fil0" d="M161.33 756.05c-13.59,23.98 -7.2,43.97 -4.8,53.57l-134.33 -231.08c-15.19,-22.39 -11.19,-36.78 -2.4,-50.37l68.77 -118.35 -71.96 -42.37 231.08 0 117.54 201.49 -71.97 -41.58 -131.93 228.69z"/>
   <path class="fil0" d="M286.07 913.56c-103.15,-10.39 -123.14,-115.94 -105.55,-148.71l49.58 -85.56 255.86 0 0 235.07 -195.1 0 -4.79 -0.8z"/>
   <path class="fil0" d="M925.73 680.09c27.99,-0.8 42.38,-16 48.77,-22.4l-132.73 231.08c-11.19,24.79 -26.39,28.79 -42.37,27.2l-136.73 0 -0.8 83.15 -115.14 -199.9 115.94 -202.29 0 83.16 263.06 0z"/>
   <path class="fil0" d="M1000.09 492.99c42.38,94.34 -39.18,164.7 -75.95,165.51l-99.16 0 -127.13 -221.49 203.1 -117.54 97.55 168.72 1.59 4.8z"/>
   <path class="fil0" d="M477.16 56.41c-14.39,-23.99 -34.38,-27.98 -43.17,-30.38l265.46 -0.8c27.19,-2.41 38.38,7.99 45.57,23.18l67.97 118.34 71.97 -41.58 -115.15 200.7 -232.67 0.8 71.15 -41.58 -131.13 -228.68z"/>
   <path class="fil0" d="M278.07 85.99c60.77,-83.95 162.31,-48.77 181.5,-16.79l49.58 85.56 -127.93 221.49 -203.1 -117.54 97.55 -168.72 2.4 -4z"/>
  </g>
 </g>
</svg>
