<?xml version="1.0" encoding="UTF-8"?>
<!DOCTYPE svg PUBLIC "-//W3C//DTD SVG 1.1//EN" "http://www.w3.org/Graphics/SVG/1.1/DTD/svg11.dtd">
<!-- Creator: CorelDRAW 2021 (64 Bit) -->
<svg xmlns="http://www.w3.org/2000/svg" xml:space="preserve" width="1024px" height="1024px" version="1.1" style="shape-rendering:geometricPrecision; text-rendering:geometricPrecision; image-rendering:optimizeQuality; fill-rule:evenodd; clip-rule:evenodd"
viewBox="0 0 1024 1024"
 xmlns:xlink="http://www.w3.org/1999/xlink"
 xmlns:xodm="http://www.corel.com/coreldraw/odm/2003">
 <defs>
  <style type="text/css">
   <![CDATA[
    .fil1 {fill:black}
    .fil0 {fill:white}
   ]]>
  </style>
 </defs>
 <g id="Camada_x0020_1">
  <metadata id="CorelCorpID_0Corel-Layer"/>
  <g id="_1617472031408">
   <g>
    <polygon class="fil0" points="12,12 1012,12 1012,1012 12,1012 "/>
    <path class="fil1" d="M512 44.53c257.47,0 467.47,210 467.47,467.47 0,257.48 -210,467.47 -467.47,467.47 -257.48,0 -467.47,-210 -467.47,-467.47 0,-257.47 209.99,-467.47 467.47,-467.47zm0 84.3c211.04,0 383.18,172.13 383.18,383.17 0,211.05 -172.14,383.18 -383.18,383.18 -211.05,0 -383.17,-172.14 -383.17,-383.18 0,-211.04 172.13,-383.17 383.17,-383.17z"/>
    <path class="fil1" d="M736.57 763.02l-186.9 0 0 -366.96 89.32 0 0 292.2 97.58 0 0 74.76zm-222.7 -235.42c0,66.9 -44.53,103.33 -108.26,103.33l-13.11 0c-63.23,0 -109.23,-32.47 -109.23,-100.41l0 -272.39 89.33 0 0 277.07c0,19.41 7.76,29.11 23.29,29.11l4.86 0c19.9,0 23.79,-19 23.79,-34.94l0 -271.24 89.33 0 0 269.47zm-167.79 178.2c0,28.75 23.38,52.13 52.13,52.13 29.04,0 52.12,-23.38 52.12,-52.13 0,-28.75 -23.08,-52.12 -52.12,-52.12 -28.75,0 -52.13,23.37 -52.13,52.12zm9.83 0c0,-24.57 19.06,-44.23 42.3,-44.23 23.38,0 42.29,19.66 42.29,44.23 0,24.43 -18.76,44.23 -42.29,44.23 -23.24,0 -42.3,-19.8 -42.3,-44.23zm23.23 25.62l9.68 0 0 -21.59 7.89 0c11.03,0 11.32,4.91 11.47,9.67 0.3,8.64 0.15,9.83 1.93,11.92l9.98 0c-2.08,-2.83 -1.64,-4.32 -2.08,-12.37 -0.31,-5.2 -0.75,-11.16 -7.45,-12.5l0 -0.3c7.74,-3.13 8.78,-8.34 8.78,-11.92 0,-13.55 -11.61,-15.03 -17.12,-15.03l-23.09 0 0 52.12 0.01 0zm9.68 -44.98l10.13 0c6.26,0 10.57,1.64 10.57,7.89 0,3.73 -1.49,8.35 -9.53,8.35l-11.17 0 0 -16.24 0 0z"/>
   </g>
  </g>
 </g>
</svg>
