<?xml version="1.0" encoding="UTF-8"?>
<!DOCTYPE svg PUBLIC "-//W3C//DTD SVG 1.1//EN" "http://www.w3.org/Graphics/SVG/1.1/DTD/svg11.dtd">
<!-- Creator: CorelDRAW 2021 (64 Bit) -->
<svg xmlns="http://www.w3.org/2000/svg" xml:space="preserve" width="1024px" height="1024px" version="1.1" style="shape-rendering:geometricPrecision; text-rendering:geometricPrecision; image-rendering:optimizeQuality; fill-rule:evenodd; clip-rule:evenodd"
viewBox="0 0 1024 1024"
 xmlns:xlink="http://www.w3.org/1999/xlink"
 xmlns:xodm="http://www.corel.com/coreldraw/odm/2003">
 <defs>
  <style type="text/css">
   <![CDATA[
    .str0 {stroke:#1D1D1B;stroke-width:0.22;stroke-miterlimit:22.9256}
    .fil2 {fill:none;fill-rule:nonzero}
    .fil0 {fill:#1D1D1B;fill-rule:nonzero}
    .fil1 {fill:white;fill-rule:nonzero}
   ]]>
  </style>
 </defs>
 <g id="Camada_x0020_1">
  <metadata id="CorelCorpID_0Corel-Layer"/>
  <g id="_1653467735072">
   <g>
    <polygon class="fil0" points="170.69,755.93 170.69,913.54 252.86,913.54 252.86,882.12 207.7,882.12 207.7,755.93 "/>
    <rect class="fil0" x="266.95" y="755.93" width="37.01" height="157.64"/>
    <path class="fil0" d="M352.16 860.75l0 11.12c0,9.02 2.95,16.98 14.77,16.98 8.65,0 12.39,-7.76 12.39,-15.71 0,-13.25 -10.92,-18.26 -20.6,-24.15 -11.34,-6.48 -21.04,-12.59 -27.98,-20.55 -6.73,-8 -10.77,-17.63 -10.77,-31.49 0,-29.63 17.9,-44.77 46.53,-44.77 32.18,0 48.56,21.47 46.89,51.05l-34.07 0.01c-0.42,-9.23 0,-21.83 -12.19,-22.67 -7.56,-0.63 -11.97,3.59 -12.82,10.5 -1.04,9.45 3.79,14.29 11.15,19.3 13.87,8.8 25.86,14.26 34.49,22.27 8.6,7.96 13.67,18.48 13.67,37.53 0,30.25 -16.81,47.11 -47.54,47.11 -33.91,0 -48.23,-18.93 -48.23,-39.75l0 -16.78 34.34 0 0 -0.06 -0.03 0.06z"/>
    <polygon class="fil0" points="424.26,755.93 424.26,787.32 453.24,787.32 453.24,913.54 490.25,913.54 490.25,787.32 520.08,787.32 520.08,755.93 "/>
    <polygon class="fil0" points="534.42,755.93 534.42,913.54 621.63,913.54 621.63,882.12 571.43,882.12 571.43,848.03 617.64,848.03 617.64,816.63 571.43,816.63 571.43,787.32 619.14,787.32 619.14,755.93 "/>
    <path class="fil0" d="M676.5 784.36c17.93,0.42 23.99,1.47 24.21,19.92l0 51.45c0.63,20.97 0.43,31.07 -24.21,29.38l0 -100.73 0 -0.02zm12.72 129.16c11.24,0 23.04,-1.05 32.72,-7.39 10.72,-6.73 15.56,-18.3 15.78,-34.04l0 -69.9c0,-15.11 -2.32,-30.48 -16.63,-38.88 -11.97,-6.93 -28.11,-7.38 -41.47,-7.38l-40.13 0 0 157.59 49.75 0 -0.02 0z"/>
   </g>
   <g>
    <path class="fil0" d="M800.64 417.28l36.76 0 0 118.61c0,7.56 2.32,14.04 12.87,14.04 9.7,0 12.65,-8.38 12.65,-15.11l0 -117.56 36.78 0 0 113.79c0,26.61 -11.92,47.06 -49.65,47.06 -31.25,0 -49.46,-14.83 -49.46,-47.06l0 -113.79 0 0 0.05 0.02z"/>
    <path class="fil0" d="M950.55 521.85l0 11.12c0,9.03 2.94,16.99 14.76,16.99 8.66,0 12.4,-7.74 12.4,-15.72 0,-13.24 -10.93,-18.25 -20.6,-24.14 -11.35,-6.48 -21.05,-12.59 -27.98,-20.55 -6.74,-7.95 -10.78,-17.63 -10.78,-31.5 0,-29.62 17.91,-44.76 46.54,-44.76 32.17,0 48.55,21.47 46.88,51.05l-34.06 0c-0.42,-9.23 0,-21.82 -12.2,-22.67 -7.55,-0.62 -11.97,3.6 -12.81,10.5 -1.05,9.45 3.79,14.29 11.14,19.31 13.87,8.8 25.86,14.26 34.49,22.27 8.61,7.95 13.67,18.48 13.67,37.53 0,30.25 -16.81,47.11 -47.53,47.11 -33.92,0 -48.23,-18.93 -48.23,-39.75l0 -16.79 34.33 0 0 -0.05 -0.02 0.05z"/>
   </g>
   <g>
    <path class="fil0" d="M456.78 715.47c168.09,0 304.38,-136.26 304.38,-304.38 0,-168.11 -136.31,-304.37 -304.38,-304.37 -168.06,0 -304.38,136.26 -304.38,304.37 0,168.12 136.27,304.38 304.38,304.38z"/>
    <path class="fil1" d="M456.78 658.93c136.92,0 247.87,-110.97 247.87,-247.86 0,-136.89 -110.98,-247.9 -247.87,-247.9 -136.88,0 -247.86,111.01 -247.86,247.9 0,136.89 110.98,247.86 247.86,247.86z"/>
   </g>
   <g>
    <path class="fil0" d="M308.3 247.85l56.14 0 0 180.83c0,11.49 3.49,21.39 19.5,21.39 14.71,0 19.18,-12.76 19.18,-22.96l0 -179.26 56.13 0 0 173.5c0,40.6 -18.18,71.95 -75.66,71.95 -47.56,0 -75.31,-22.7 -75.31,-71.95l0 -173.5 0 0 0.02 0z"/>
    <polygon class="fil0" points="481.38,574.37 481.38,334.53 537.54,334.53 537.54,526.32 606.22,526.32 606.22,574.37 "/>
    <path class="fil0" d="M376.76 525.97l5.81 0c2.79,0 7.8,0.15 7.9,6.55 0.13,6.54 -5.26,6.81 -7.21,6.89l-6.53 0 0 -13.44 0.03 0zm0 17.15l7.23 0c4.86,0 6.36,3.17 6.36,6.91 0,2.5 0.42,7.11 1.3,9.5l4.81 0 0 -0.84c-0.98,0 -1.3,-1.65 -1.45,-2.32 -0.38,-2.8 -0.65,-5.54 -0.8,-8.33 -0.57,-4.97 -1.79,-6.49 -6.61,-6.96l0 -0.1c4.32,-0.62 7.03,-3.74 7.16,-8.13 0.22,-8.61 -4.74,-10.65 -12.57,-10.65l-9.6 0 0 37.31 4.14 0 0 -16.39 0 0 0.03 0z"/>
    <path class="fil2 str0" d="M383.86 570.78c16.51,0 29.88,-13.37 29.88,-29.88 0,-16.51 -13.37,-29.92 -29.88,-29.92 -16.5,0 -29.87,13.39 -29.87,29.92 0,16.54 13.37,29.88 29.87,29.88z"/>
   </g>
   <path class="fil0" d="M74.75 472.4l0 -10.05c0,-13.37 -4.79,-20.28 -11.65,-20.28 -11.52,-0.2 -14.24,6.06 -14.24,16.31l-0.2 77.64c0,8.8 3.57,14.01 13.19,14.01 12.57,0 13.62,-12.99 13.62,-22.61l0 -14.24 36.78 -0.01 0 19.25c0,27.01 -15.46,45.94 -53.22,45.94 -33.86,0 -47.03,-18.08 -47.03,-50.13l0 -64.46c0,-34.17 15.71,-50.13 49.35,-50.13 31.33,0 50.18,13.44 50.18,45.54l0 13.17 -36.83 0 0.05 0.05z"/>
  </g>
 </g>
</svg>
