<?xml version="1.0" encoding="UTF-8"?>
<!DOCTYPE svg PUBLIC "-//W3C//DTD SVG 1.1//EN" "http://www.w3.org/Graphics/SVG/1.1/DTD/svg11.dtd">
<!-- Creator: CorelDRAW 2021 (64 Bit) -->
<svg xmlns="http://www.w3.org/2000/svg" xml:space="preserve" width="1024px" height="1024px" version="1.1" style="shape-rendering:geometricPrecision; text-rendering:geometricPrecision; image-rendering:optimizeQuality; fill-rule:evenodd; clip-rule:evenodd"
viewBox="0 0 1024 1024"
 xmlns:xlink="http://www.w3.org/1999/xlink"
 xmlns:xodm="http://www.corel.com/coreldraw/odm/2003">
 <defs>
  <style type="text/css">
   <![CDATA[
    .fil0 {fill:#0C0E0F}
    .fil1 {fill:white}
   ]]>
  </style>
 </defs>
 <g id="Camada_x0020_1">
  <metadata id="CorelCorpID_0Corel-Layer"/>
  <path class="fil0" d="M754.84 674.02c72.7,0 132.27,-59.57 132.27,-132.28l0 -78.75c0,-72.7 -59.57,-132.28 -132.27,-132.28l-518 0c-72.7,0 -132.28,59.58 -132.28,132.28l0 78.76c0,72.7 59.58,132.28 132.28,132.28l518 0 0 -0.01z"/>
  <path class="fil1" d="M513.5 541.74l0 -78.75c0,-59.57 48.47,-107.03 107.04,-107.03l134.3 0c58.56,0 106.02,47.46 106.02,107.03l0 78.76c0,58.56 -47.45,107.03 -106.02,107.03l-295.86 0c33.32,-24.23 54.52,-62.6 54.52,-107.04l0 0zm-173.67 41.41l-44.43 0 -8.07 -37.36c-5.05,-26.26 -10.1,-58.57 -11.11,-70.69 -1.01,12.12 -6.06,44.43 -12.12,70.69l-8.08 37.36 -43.41 0 -40.4 -171.66 48.47 0 5.05 29.29c4.03,24.23 8.07,53.51 10.09,73.71 2.02,-20.2 7.07,-49.48 13.13,-73.71l6.05 -29.29 43.42 0 6.06 29.29c5.05,24.23 10.09,53.51 12.11,73.71 2.03,-20.2 7.07,-49.48 11.11,-73.71l4.04 -29.29 48.47 0 -40.38 171.66 0 0zm83.81 -138.34c-14.14,0 -25.24,-8.08 -25.24,-21.2 0,-13.13 11.1,-21.21 25.24,-21.21 15.14,0 26.26,8.08 26.26,21.21 -0.01,13.12 -11.12,21.2 -26.26,21.2zm-22.21 14.14l44.42 0 0 124.19 -44.42 0 0 -124.19z"/>
  <path class="fil0" d="M621.55 451.88l0 38.37 90.87 0 0 40.39 -90.87 0 0 52.51 -47.46 0 0 -171.66 148.43 0 0 40.39 -100.97 0zm150.45 -7.07c-14.14,0 -25.24,-8.08 -25.24,-21.2 0,-13.13 11.11,-21.21 25.24,-21.21 15.15,0 26.25,8.08 26.25,21.21 0,13.12 -11.1,21.2 -26.25,21.2zm-22.22 14.14l44.43 0 0 124.19 -44.43 0 0 -124.19zm161.57 -101.98l0 32.31 -8.09 0 0 -32.31 -12.11 0 0 -8.08 31.3 0 0 8.08 -11.1 0zm48.45 32.31l0 -15.14 0 -9.09c-1.01,2.02 -2.01,5.05 -3.02,7.06l-8.08 18.18 -8.09 -18.18c-1,-2.01 -2.02,-5.04 -3.02,-7.06l0 24.23 -7.07 0 0 -40.39 7.07 0 8.08 18.18c1,2.01 3.03,5.04 3.03,7.06 1,-2.02 2.02,-5.05 3.03,-7.06l8.07 -18.18 8.08 0 0 40.39 -8.08 0z"/>
 </g>
</svg>
